# xmcd
#
# Track frame offsets: 
#        150
#        12602
#        23524
#        32599
#        40746
#        52346
#        64287
#        73484
#        84726
#        97789
#        109723
#        122024
#        137900
#        150568
#        168176
#
# Disc length: 2371 seconds
#
# Revision: 4
# Processed by: cddbd v1.5.2PL0 Copyright (c) Steve Scherf et al.
# Submitted via: ExactAudioCopy v1.1
#
DISCID=c909410f
DTITLE=Various Artist - Country Jukebox: All Of Me [CD1]
DYEAR=2006
DGENRE=Country
TTITLE0=Lefty Frizzell - I Love You a Thousands Ways
TTITLE1=Carl Smith - (When You Feel Like You're in Love) Don't Just St
TTITLE1=and There
TTITLE2=Johnny Horton - I'm a One-Woman Man
TTITLE3=Elvis Presley - (Let Me Be Your) Teddy Bear
TTITLE4=Skeeter Davis - My Last Dance (With You)
TTITLE5=Ray Price - I Wish I Could Fall in Love Today
TTITLE6=Marty Robbins - Ruby Ann
TTITLE7=Tammy Wynette - The Ways to Love a Man
TTITLE8=Charley Pride - She's Too Good to Be True
TTITLE9=Lynn Anderson - You're My Man
TTITLE10=Charlie Rich - The Most Beautiful Girl
TTITLE11=John Denver - I'm Sorry
TTITLE12=Dolly Parton and Porter Wagoner - Please Don't Stop Loving Me
TTITLE13=Willie Nelson - All of Me
TTITLE14=Jimmy Dean - The First Thing Ev'ry Morning (And the Last Thin
TTITLE14=g Ev'ry Night)
EXTD=
EXTT0=
EXTT1=
EXTT2=
EXTT3=
EXTT4=
EXTT5=
EXTT6=
EXTT7=
EXTT8=
EXTT9=
EXTT10=
EXTT11=
EXTT12=
EXTT13=
EXTT14=
PLAYORDER=
